<svg width="58" height="58" viewBox="0 0 58 58" fill="none" xmlns="http://www.w3.org/2000/svg">
<g clip-path="url(#clip0_2229_55)">
<path d="M52.8139 16.5847C45.1532 3.99852 33.6129 12.7549 33.6129 12.7549C32.8644 13.3205 31.4843 13.7856 30.5466 13.7878L27.4555 13.7899C26.5178 13.791 25.1377 13.3259 24.3904 12.7603C24.3904 12.7603 12.849 4.00177 5.18717 16.5879C-2.47248 29.1698 0.614311 42.8721 0.614311 42.8721C1.15509 46.2271 2.93751 48.466 6.30118 48.1848C9.65511 47.9046 16.9351 39.1494 16.9351 39.1494C17.5365 38.428 18.7965 37.8385 19.7321 37.8385L38.2636 37.8353C39.2002 37.8353 40.4592 38.4247 41.0594 39.1461C41.0594 39.1461 48.3405 47.9014 51.6999 48.1815C55.0592 48.4627 56.846 46.2217 57.3835 42.8689C57.3835 42.8689 60.4746 29.1687 52.8139 16.5847ZM22.0358 26.8293H18.0621V30.6591C18.0621 30.6591 17.2207 31.3015 15.9185 31.2853C14.6184 31.2659 14.03 30.5845 14.03 30.5845V26.8304H10.277C10.277 26.8304 9.80869 26.3501 9.68323 25.0858C9.55993 23.8214 10.2013 22.7994 10.2013 22.7994H14.1761V18.8257C14.1761 18.8257 14.9937 18.3877 16.1694 18.4212C17.3461 18.458 18.2081 18.9003 18.2081 18.9003L18.1919 22.7983H21.9449C21.9449 22.7983 22.6004 23.6397 22.6544 24.6564C22.7085 25.6742 22.0358 26.8293 22.0358 26.8293ZM40.2623 31.1945C38.5221 31.1945 37.1193 29.7874 37.1193 28.0493C37.1193 26.308 38.5221 24.9041 40.2623 24.9041C41.995 24.9041 43.4086 26.308 43.4086 28.0493C43.4086 29.7884 41.995 31.1945 40.2623 31.1945ZM40.2623 22.5409C38.5221 22.5409 37.1193 21.1348 37.1193 19.3968C37.1193 17.6554 38.5221 16.2516 40.2623 16.2516C41.995 16.2516 43.4086 17.6554 43.4086 19.3968C43.4086 21.1359 41.995 22.5409 40.2623 22.5409ZM48.095 27.1862C46.3548 27.1862 44.952 25.7802 44.952 24.041C44.952 22.3008 46.3548 20.8958 48.095 20.8958C49.8277 20.8958 51.2413 22.3008 51.2413 24.041C51.2413 25.7802 49.8277 27.1862 48.095 27.1862Z" fill="#010002"/>
</g>
<defs>
<clipPath id="clip0_2229_55">
<rect width="58" height="58" fill="white"/>
</clipPath>
</defs>
</svg>
